<?xml version="1.0" encoding="utf-8"?>
<!-- Generator: Adobe Illustrator 16.0.0, SVG Export Plug-In . SVG Version: 6.00 Build 0)  -->
<!DOCTYPE svg PUBLIC "-//W3C//DTD SVG 1.1//EN" "http://www.w3.org/Graphics/SVG/1.1/DTD/svg11.dtd">
<svg version="1.1" id="Layer_1" xmlns="http://www.w3.org/2000/svg" xmlns:xlink="http://www.w3.org/1999/xlink" x="0px" y="0px"
	 width="766px" height="766px" viewBox="192.5 64.5 766 766" enable-background="new 192.5 64.5 766 766" xml:space="preserve">
<g>
	<g>
		<g>
			<path d="M513.037,637.074l-84.841,84.841c-35.173,35.174-92.134,35.174-127.277,0.007c-35.151-35.15-35.151-92.117-0.007-127.261
				L470.623,424.95c35.144-35.146,92.11-35.146,127.254,0c11.716,11.715,30.711,11.715,42.427,0
				c11.716-11.716,11.716-30.712,0-42.427c-58.576-58.577-153.531-58.577-212.107,0l-169.71,169.71
				c-58.576,58.576-58.576,153.531,0,212.107c58.569,58.606,153.531,58.606,212.139,0l84.841-84.842
				c11.715-11.715,11.715-30.711,0-42.427C543.75,625.357,524.753,625.358,513.037,637.074z"/>
			<path d="M890.605,132.228c-58.577-58.576-153.562-58.576-212.139,0L576.676,234.018c-11.715,11.715-11.715,30.711,0,42.427
				c11.716,11.715,30.712,11.715,42.427,0l101.791-101.791c35.144-35.146,92.14-35.146,127.284,0
				c35.145,35.144,35.145,92.11,0,127.253L661.518,488.57c-35.146,35.146-92.11,35.146-127.254,0
				c-11.716-11.716-30.712-11.716-42.427,0c-11.716,11.716-11.716,30.711,0,42.427c58.576,58.576,153.53,58.576,212.107,0
				l186.661-186.661C949.182,285.76,949.182,190.804,890.605,132.228z"/>
		</g>
	</g>
</g>
</svg>
